<svg version="1.1" xmlns="http://www.w3.org/2000/svg" viewBox="0 0 300 507.5">
  <style>
    .font { font-family: sans-serif; }
    .s3 { font-size: 3px; }
    .s4 { font-size: 4px; }
    .s5 { font-size: 5px; }
    .s6 { font-size: 6px; }
    .title { fill: #222; font-weight: 600; }
    .line { stroke: #cacaca; }
    .lineMinor { stroke: #e6e6e6; }
    .width { stroke-width: 0.5; }
    .text { fill: #888; }
  </style>
  <rect x="0" y="0" width="300" height="507.5" fill="#fff"></rect>
  <text x="40" y="6" class="font s6 title">A lot of files benchmark</text>
  <text x="40" y="12" class="font s3 text">Latest available versions across install scenarios (lower is better)</text>
  <circle cx="61.285714285714285" cy="17" r="4" fill="#cd3731"></circle>
  <text x="61.285714285714285" y="25" class="font s4" text-anchor="middle">npm</text>
  <text x="61.285714285714285" y="29" class="font s3" text-anchor="middle">v11.16.0</text>
  <circle cx="95.85714285714286" cy="17" r="4" fill="#fbae00"></circle>
  <text x="95.85714285714286" y="25" class="font s4" text-anchor="middle">pnpm</text>
  <text x="95.85714285714286" y="29" class="font s3" text-anchor="middle">v11.5.3</text>
  <circle cx="130.42857142857142" cy="17" r="4" fill="#8e44ad"></circle>
  <text x="130.42857142857142" y="25" class="font s4" text-anchor="middle">pnpm v12 (rust)</text>
  <text x="130.42857142857142" y="29" class="font s3" text-anchor="middle">v0.11.4</text>
  <circle cx="165" cy="17" r="4" fill="#248ebd"></circle>
  <text x="165" y="25" class="font s4" text-anchor="middle">Yarn</text>
  <text x="165" y="29" class="font s3" text-anchor="middle">v4.16.0</text>
  <circle cx="199.57142857142856" cy="17" r="4" fill="#40a9ff"></circle>
  <text x="199.57142857142856" y="25" class="font s4" text-anchor="middle">Yarn PnP</text>
  <text x="199.57142857142856" y="29" class="font s3" text-anchor="middle">v4.16.0</text>
  <circle cx="234.1428571428571" cy="17" r="4" fill="#16a34a"></circle>
  <text x="234.1428571428571" y="25" class="font s4" text-anchor="middle">Yarn Classic</text>
  <text x="234.1428571428571" y="29" class="font s3" text-anchor="middle">v1.22.22</text>
  <circle cx="268.7142857142857" cy="17" r="4" fill="#ff6b00"></circle>
  <text x="268.7142857142857" y="25" class="font s4" text-anchor="middle">Bun</text>
  <text x="268.7142857142857" y="29" class="font s3" text-anchor="middle">v1.3.14</text>
  <text x="40" y="41" class="font s4 text" text-anchor="middle">0</text>
  <text x="40" y="498.5" class="font s4 text" text-anchor="middle">0</text>
  <line x1="65" y1="44" x2="65" y2="493.5" class="lineMinor width"></line>
  <text x="65" y="41" class="font s4 text" text-anchor="middle">3</text>
  <text x="65" y="498.5" class="font s4 text" text-anchor="middle">3</text>
  <line x1="90" y1="44" x2="90" y2="493.5" class="line width"></line>
  <text x="90" y="41" class="font s4 text" text-anchor="middle">6</text>
  <text x="90" y="498.5" class="font s4 text" text-anchor="middle">6</text>
  <line x1="115" y1="44" x2="115" y2="493.5" class="lineMinor width"></line>
  <text x="115" y="41" class="font s4 text" text-anchor="middle">9</text>
  <text x="115" y="498.5" class="font s4 text" text-anchor="middle">9</text>
  <line x1="140" y1="44" x2="140" y2="493.5" class="line width"></line>
  <text x="140" y="41" class="font s4 text" text-anchor="middle">12</text>
  <text x="140" y="498.5" class="font s4 text" text-anchor="middle">12</text>
  <line x1="165" y1="44" x2="165" y2="493.5" class="lineMinor width"></line>
  <text x="165" y="41" class="font s4 text" text-anchor="middle">15</text>
  <text x="165" y="498.5" class="font s4 text" text-anchor="middle">15</text>
  <line x1="190" y1="44" x2="190" y2="493.5" class="line width"></line>
  <text x="190" y="41" class="font s4 text" text-anchor="middle">18</text>
  <text x="190" y="498.5" class="font s4 text" text-anchor="middle">18</text>
  <line x1="215" y1="44" x2="215" y2="493.5" class="lineMinor width"></line>
  <text x="215" y="41" class="font s4 text" text-anchor="middle">21</text>
  <text x="215" y="498.5" class="font s4 text" text-anchor="middle">21</text>
  <line x1="240.00000000000003" y1="44" x2="240.00000000000003" y2="493.5" class="line width"></line>
  <text x="240.00000000000003" y="41" class="font s4 text" text-anchor="middle">24</text>
  <text x="240.00000000000003" y="498.5" class="font s4 text" text-anchor="middle">24</text>
  <line x1="265" y1="44" x2="265" y2="493.5" class="lineMinor width"></line>
  <text x="265" y="41" class="font s4 text" text-anchor="middle">27</text>
  <text x="265" y="498.5" class="font s4 text" text-anchor="middle">27</text>
  <line x1="290" y1="44" x2="290" y2="493.5" class="line width"></line>
  <text x="290" y="41" class="font s4 text" text-anchor="middle">30</text>
  <text x="290" y="498.5" class="font s4 text" text-anchor="middle">30</text>
  <rect x="40" y="48" width="250" height="6" fill="#cd3731" rx="1" ry="1"></rect>
  <rect x="40" y="54.5" width="67" height="6" fill="#fbae00" rx="1" ry="1"></rect>
  <rect x="40" y="61" width="65" height="6" fill="#8e44ad" rx="1" ry="1"></rect>
  <rect x="40" y="67.5" width="113" height="6" fill="#248ebd" rx="1" ry="1"></rect>
  <rect x="40" y="74" width="29" height="6" fill="#40a9ff" rx="1" ry="1"></rect>
  <rect x="40" y="80.5" width="222" height="6" fill="#16a34a" rx="1" ry="1"></rect>
  <rect x="40" y="87" width="17" height="6" fill="#ff6b00" rx="1" ry="1"></rect>
  <rect x="40" y="97.5" width="6" height="6" fill="#cd3731" rx="1" ry="1"></rect>
  <rect x="40" y="104" width="4" height="6" fill="#fbae00" rx="1" ry="1"></rect>
  <rect x="40" y="110.5" width="4" height="6" fill="#8e44ad" rx="1" ry="1"></rect>
  <rect x="40" y="117" width="13" height="6" fill="#248ebd" rx="1" ry="1"></rect>
  <rect x="40" y="123.5" width="1" height="6" fill="#40a9ff" rx="1" ry="1"></rect>
  <rect x="40" y="130" width="3" height="6" fill="#16a34a" rx="1" ry="1"></rect>
  <rect x="40" y="136.5" width="1" height="6" fill="#ff6b00" rx="1" ry="1"></rect>
  <rect x="40" y="147" width="39" height="6" fill="#cd3731" rx="1" ry="1"></rect>
  <rect x="40" y="153.5" width="19" height="6" fill="#fbae00" rx="1" ry="1"></rect>
  <rect x="40" y="160" width="12" height="6" fill="#8e44ad" rx="1" ry="1"></rect>
  <rect x="40" y="166.5" width="44" height="6" fill="#248ebd" rx="1" ry="1"></rect>
  <rect x="40" y="173" width="12" height="6" fill="#40a9ff" rx="1" ry="1"></rect>
  <rect x="40" y="179.5" width="48" height="6" fill="#16a34a" rx="1" ry="1"></rect>
  <rect x="40" y="186" width="2" height="6" fill="#ff6b00" rx="1" ry="1"></rect>
  <rect x="40" y="196.5" width="60" height="6" fill="#cd3731" rx="1" ry="1"></rect>
  <rect x="40" y="203" width="38" height="6" fill="#fbae00" rx="1" ry="1"></rect>
  <rect x="40" y="209.5" width="33" height="6" fill="#8e44ad" rx="1" ry="1"></rect>
  <rect x="40" y="216" width="58" height="6" fill="#248ebd" rx="1" ry="1"></rect>
  <rect x="40" y="222.5" width="24" height="6" fill="#40a9ff" rx="1" ry="1"></rect>
  <rect x="40" y="229" width="129" height="6" fill="#16a34a" rx="1" ry="1"></rect>
  <rect x="40" y="235.5" width="2" height="6" fill="#ff6b00" rx="1" ry="1"></rect>
  <rect x="40" y="246" width="55" height="6" fill="#cd3731" rx="1" ry="1"></rect>
  <rect x="40" y="252.5" width="58" height="6" fill="#fbae00" rx="1" ry="1"></rect>
  <rect x="40" y="259" width="11" height="6" fill="#8e44ad" rx="1" ry="1"></rect>
  <rect x="40" y="265.5" width="45" height="6" fill="#248ebd" rx="1" ry="1"></rect>
  <rect x="40" y="272" width="12" height="6" fill="#40a9ff" rx="1" ry="1"></rect>
  <rect x="40" y="278.5" width="118" height="6" fill="#16a34a" rx="1" ry="1"></rect>
  <rect x="40" y="285" width="8" height="6" fill="#ff6b00" rx="1" ry="1"></rect>
  <rect x="40" y="295.5" width="9" height="6" fill="#cd3731" rx="1" ry="1"></rect>
  <rect x="40" y="302" width="24" height="6" fill="#fbae00" rx="1" ry="1"></rect>
  <rect x="40" y="308.5" width="4" height="6" fill="#8e44ad" rx="1" ry="1"></rect>
  <rect x="40" y="315" width="26" height="6" fill="#248ebd" rx="1" ry="1"></rect>
  <rect x="40" y="321.5" width="1" height="6" fill="#40a9ff" rx="1" ry="1"></rect>
  <rect x="40" y="328" width="88" height="6" fill="#16a34a" rx="1" ry="1"></rect>
  <rect x="40" y="334.5" width="1" height="6" fill="#ff6b00" rx="1" ry="1"></rect>
  <rect x="40" y="345" width="6" height="6" fill="#cd3731" rx="1" ry="1"></rect>
  <rect x="40" y="351.5" width="4" height="6" fill="#fbae00" rx="1" ry="1"></rect>
  <rect x="40" y="358" width="4" height="6" fill="#8e44ad" rx="1" ry="1"></rect>
  <rect x="40" y="364.5" width="14" height="6" fill="#248ebd" rx="1" ry="1"></rect>
  <rect x="40" y="371" width="1" height="6" fill="#40a9ff" rx="1" ry="1"></rect>
  <rect x="40" y="377.5" width="3" height="6" fill="#16a34a" rx="1" ry="1"></rect>
  <rect x="40" y="384" width="1" height="6" fill="#ff6b00" rx="1" ry="1"></rect>
  <rect x="40" y="394.5" width="8" height="6" fill="#cd3731" rx="1" ry="1"></rect>
  <rect x="40" y="401" width="30" height="6" fill="#fbae00" rx="1" ry="1"></rect>
  <rect x="40" y="407.5" width="4" height="6" fill="#8e44ad" rx="1" ry="1"></rect>
  <rect x="40" y="414" width="27" height="6" fill="#248ebd" rx="1" ry="1"></rect>
  <rect x="40" y="420.5" width="1" height="6" fill="#40a9ff" rx="1" ry="1"></rect>
  <rect x="40" y="427" width="221" height="6" fill="#16a34a" rx="1" ry="1"></rect>
  <rect x="40" y="433.5" width="1" height="6" fill="#ff6b00" rx="1" ry="1"></rect>
  <rect x="40" y="444" width="6" height="6" fill="#cd3731" rx="1" ry="1"></rect>
  <rect x="40" y="450.5" width="68" height="6" fill="#fbae00" rx="1" ry="1"></rect>
  <rect x="40" y="457" width="54" height="6" fill="#8e44ad" rx="1" ry="1"></rect>
  <rect x="40" y="463.5" width="49" height="6" fill="#248ebd" rx="1" ry="1"></rect>
  <rect x="40" y="470" width="26" height="6" fill="#40a9ff" rx="1" ry="1"></rect>
  <rect x="40" y="476.5" width="103" height="6" fill="#16a34a" rx="1" ry="1"></rect>
  <rect x="40" y="483" width="2" height="6" fill="#ff6b00" rx="1" ry="1"></rect>
  <line x1="40" y1="44" x2="40" y2="493.5" class="line"></line>
  <text x="38" y="57.5" class="font s4" dominant-baseline="middle" text-anchor="end">clean install</text>
  <text x="38" y="103" class="font s4" dominant-baseline="middle" text-anchor="end">with cache</text>
  <text x="38" y="107" class="font s4" dominant-baseline="middle" text-anchor="end">with lockfile</text>
  <text x="38" y="111" class="font s4" dominant-baseline="middle" text-anchor="end">with node_modules</text>
  <text x="38" y="154.5" class="font s4" dominant-baseline="middle" text-anchor="end">with cache</text>
  <text x="38" y="158.5" class="font s4" dominant-baseline="middle" text-anchor="end">with lockfile</text>
  <text x="38" y="206" class="font s4" dominant-baseline="middle" text-anchor="end">with cache</text>
  <text x="38" y="255.5" class="font s4" dominant-baseline="middle" text-anchor="end">with lockfile</text>
  <text x="38" y="303" class="font s4" dominant-baseline="middle" text-anchor="end">with cache</text>
  <text x="38" y="307" class="font s4" dominant-baseline="middle" text-anchor="end">with node_modules</text>
  <text x="38" y="352.5" class="font s4" dominant-baseline="middle" text-anchor="end">with node_modules</text>
  <text x="38" y="356.5" class="font s4" dominant-baseline="middle" text-anchor="end">with lockfile</text>
  <text x="38" y="404" class="font s4" dominant-baseline="middle" text-anchor="end">with node_modules</text>
  <text x="38" y="453.5" class="font s4" dominant-baseline="middle" text-anchor="end">update</text>
  <text x="290" y="505.5" class="font s4 text" text-anchor="end">Tests were run using Node.js v24.11.1 at: 12 juin 2026, 08:41</text>
</svg>
