<svg version="1.1" xmlns="http://www.w3.org/2000/svg" viewBox="0 0 306 258">
  <style>
    .font { font-family: sans-serif; }
    .s2 { font-size: 2px; }
    .s3 { font-size: 3px; }
    .s4 { font-size: 4px; }
    .s5 { font-size: 5px; }
    .line { stroke: #cacaca; }
    .width { stroke-width: 0.5; }
    .text { fill: #888; }
    .bold { font-weight: bold; }
  </style>
  <rect x="0" y="0" width="306" height="258" fill="#fff"></rect>
  <rect x="46" y="10" width="163" height="4" fill="hsl(0, 100%, 45%)" rx="1" ry="1"></rect>
  <text x="211" y="12" fill="hsl(0, 100%, 20%)" dominant-baseline="middle" class="font s4">1.8s</text>
  <rect x="46" y="15.5" width="6" height="4" fill="hsl(0, 100%, 45%)" rx="1" ry="1"></rect>
  <text x="54" y="17.5" fill="hsl(0, 100%, 20%)" dominant-baseline="middle" class="font s4">64ms</text>
  <rect x="46" y="21" width="59" height="4" fill="hsl(0, 100%, 45%)" rx="1" ry="1"></rect>
  <text x="107" y="23" fill="hsl(0, 100%, 20%)" dominant-baseline="middle" class="font s4">674ms</text>
  <rect x="46" y="26.5" width="58" height="4" fill="hsl(0, 100%, 45%)" rx="1" ry="1"></rect>
  <text x="106" y="28.5" fill="hsl(0, 100%, 20%)" dominant-baseline="middle" class="font s4">665ms</text>
  <rect x="46" y="32" width="57" height="4" fill="hsl(0, 100%, 45%)" rx="1" ry="1"></rect>
  <text x="105" y="34" fill="hsl(0, 100%, 20%)" dominant-baseline="middle" class="font s4">656ms</text>
  <rect x="46" y="37.5" width="7" height="4" fill="hsl(0, 100%, 45%)" rx="1" ry="1"></rect>
  <text x="55" y="39.5" fill="hsl(0, 100%, 20%)" dominant-baseline="middle" class="font s4">81ms</text>
  <rect x="46" y="43" width="5" height="4" fill="hsl(0, 100%, 45%)" rx="1" ry="1"></rect>
  <text x="53" y="45" fill="hsl(0, 100%, 20%)" dominant-baseline="middle" class="font s4">60ms</text>
  <rect x="46" y="48.5" width="7" height="4" fill="hsl(0, 100%, 45%)" rx="1" ry="1"></rect>
  <text x="55" y="50.5" fill="hsl(0, 100%, 20%)" dominant-baseline="middle" class="font s4">80ms</text>
  <rect x="46" y="54" width="9" height="4" fill="hsl(0, 100%, 45%)" rx="1" ry="1"></rect>
  <text x="57" y="56" fill="hsl(0, 100%, 20%)" dominant-baseline="middle" class="font s4">104ms</text>
  <rect x="46" y="68.5" width="178" height="4" fill="hsl(90, 100%, 45%)" rx="1" ry="1"></rect>
  <text x="226" y="70.5" fill="hsl(90, 100%, 20%)" dominant-baseline="middle" class="font s4">2s</text>
  <rect x="46" y="74" width="6" height="4" fill="hsl(90, 100%, 45%)" rx="1" ry="1"></rect>
  <text x="54" y="76" fill="hsl(90, 100%, 20%)" dominant-baseline="middle" class="font s4">69ms</text>
  <rect x="46" y="79.5" width="57" height="4" fill="hsl(90, 100%, 45%)" rx="1" ry="1"></rect>
  <text x="105" y="81.5" fill="hsl(90, 100%, 20%)" dominant-baseline="middle" class="font s4">659ms</text>
  <rect x="46" y="85" width="59" height="4" fill="hsl(90, 100%, 45%)" rx="1" ry="1"></rect>
  <text x="107" y="87" fill="hsl(90, 100%, 20%)" dominant-baseline="middle" class="font s4">674ms</text>
  <rect x="46" y="90.5" width="57" height="4" fill="hsl(90, 100%, 45%)" rx="1" ry="1"></rect>
  <text x="105" y="92.5" fill="hsl(90, 100%, 20%)" dominant-baseline="middle" class="font s4">659ms</text>
  <rect x="46" y="96" width="7" height="4" fill="hsl(90, 100%, 45%)" rx="1" ry="1"></rect>
  <text x="55" y="98" fill="hsl(90, 100%, 20%)" dominant-baseline="middle" class="font s4">83ms</text>
  <rect x="46" y="101.5" width="5" height="4" fill="hsl(90, 100%, 45%)" rx="1" ry="1"></rect>
  <text x="53" y="103.5" fill="hsl(90, 100%, 20%)" dominant-baseline="middle" class="font s4">60ms</text>
  <rect x="46" y="107" width="7" height="4" fill="hsl(90, 100%, 45%)" rx="1" ry="1"></rect>
  <text x="55" y="109" fill="hsl(90, 100%, 20%)" dominant-baseline="middle" class="font s4">76ms</text>
  <rect x="46" y="112.5" width="11" height="4" fill="hsl(90, 100%, 45%)" rx="1" ry="1"></rect>
  <text x="59" y="114.5" fill="hsl(90, 100%, 20%)" dominant-baseline="middle" class="font s4">127ms</text>
  <rect x="46" y="127" width="199" height="4" fill="hsl(180, 100%, 45%)" rx="1" ry="1"></rect>
  <text x="247" y="129" fill="hsl(180, 100%, 20%)" dominant-baseline="middle" class="font s4">2.2s</text>
  <rect x="46" y="132.5" width="6" height="4" fill="hsl(180, 100%, 45%)" rx="1" ry="1"></rect>
  <text x="54" y="134.5" fill="hsl(180, 100%, 20%)" dominant-baseline="middle" class="font s4">65ms</text>
  <rect x="46" y="138" width="56" height="4" fill="hsl(180, 100%, 45%)" rx="1" ry="1"></rect>
  <text x="104" y="140" fill="hsl(180, 100%, 20%)" dominant-baseline="middle" class="font s4">648ms</text>
  <rect x="46" y="143.5" width="58" height="4" fill="hsl(180, 100%, 45%)" rx="1" ry="1"></rect>
  <text x="106" y="145.5" fill="hsl(180, 100%, 20%)" dominant-baseline="middle" class="font s4">663ms</text>
  <rect x="46" y="149" width="56" height="4" fill="hsl(180, 100%, 45%)" rx="1" ry="1"></rect>
  <text x="104" y="151" fill="hsl(180, 100%, 20%)" dominant-baseline="middle" class="font s4">647ms</text>
  <rect x="46" y="154.5" width="7" height="4" fill="hsl(180, 100%, 45%)" rx="1" ry="1"></rect>
  <text x="55" y="156.5" fill="hsl(180, 100%, 20%)" dominant-baseline="middle" class="font s4">81ms</text>
  <rect x="46" y="160" width="5" height="4" fill="hsl(180, 100%, 45%)" rx="1" ry="1"></rect>
  <text x="53" y="162" fill="hsl(180, 100%, 20%)" dominant-baseline="middle" class="font s4">55ms</text>
  <rect x="46" y="165.5" width="7" height="4" fill="hsl(180, 100%, 45%)" rx="1" ry="1"></rect>
  <text x="55" y="167.5" fill="hsl(180, 100%, 20%)" dominant-baseline="middle" class="font s4">80ms</text>
  <rect x="46" y="171" width="9" height="4" fill="hsl(180, 100%, 45%)" rx="1" ry="1"></rect>
  <text x="57" y="173" fill="hsl(180, 100%, 20%)" dominant-baseline="middle" class="font s4">100ms</text>
  <rect x="46" y="185.5" width="250" height="4" fill="hsl(270, 100%, 45%)" rx="1" ry="1"></rect>
  <text x="298" y="187.5" fill="hsl(270, 100%, 20%)" dominant-baseline="middle" class="font s4">2.8s</text>
  <rect x="46" y="191" width="6" height="4" fill="hsl(270, 100%, 45%)" rx="1" ry="1"></rect>
  <text x="54" y="193" fill="hsl(270, 100%, 20%)" dominant-baseline="middle" class="font s4">67ms</text>
  <rect x="46" y="196.5" width="59" height="4" fill="hsl(270, 100%, 45%)" rx="1" ry="1"></rect>
  <text x="107" y="198.5" fill="hsl(270, 100%, 20%)" dominant-baseline="middle" class="font s4">677ms</text>
  <rect x="46" y="202" width="59" height="4" fill="hsl(270, 100%, 45%)" rx="1" ry="1"></rect>
  <text x="107" y="204" fill="hsl(270, 100%, 20%)" dominant-baseline="middle" class="font s4">679ms</text>
  <rect x="46" y="207.5" width="58" height="4" fill="hsl(270, 100%, 45%)" rx="1" ry="1"></rect>
  <text x="106" y="209.5" fill="hsl(270, 100%, 20%)" dominant-baseline="middle" class="font s4">669ms</text>
  <rect x="46" y="213" width="7" height="4" fill="hsl(270, 100%, 45%)" rx="1" ry="1"></rect>
  <text x="55" y="215" fill="hsl(270, 100%, 20%)" dominant-baseline="middle" class="font s4">83ms</text>
  <rect x="46" y="218.5" width="5" height="4" fill="hsl(270, 100%, 45%)" rx="1" ry="1"></rect>
  <text x="53" y="220.5" fill="hsl(270, 100%, 20%)" dominant-baseline="middle" class="font s4">60ms</text>
  <rect x="46" y="224" width="7" height="4" fill="hsl(270, 100%, 45%)" rx="1" ry="1"></rect>
  <text x="55" y="226" fill="hsl(270, 100%, 20%)" dominant-baseline="middle" class="font s4">75ms</text>
  <rect x="46" y="229.5" width="9" height="4" fill="hsl(270, 100%, 45%)" rx="1" ry="1"></rect>
  <text x="57" y="231.5" fill="hsl(270, 100%, 20%)" dominant-baseline="middle" class="font s4">104ms</text>
  <text x="48" y="6.5" class="font s5" dominant-baseline="middle" text-anchor="start">bun v1.0.25</text>
  <text x="44" y="12" class="font s4" dominant-baseline="middle" text-anchor="end">clean install</text>
  <text x="44" y="17.5" class="font s4" dominant-baseline="middle" text-anchor="end">cache + lockfile + node_modules</text>
  <text x="44" y="23" class="font s4" dominant-baseline="middle" text-anchor="end">cache + lockfile</text>
  <text x="44" y="28.5" class="font s4" dominant-baseline="middle" text-anchor="end">cache</text>
  <text x="44" y="34" class="font s4" dominant-baseline="middle" text-anchor="end">lockfile</text>
  <text x="44" y="39.5" class="font s4" dominant-baseline="middle" text-anchor="end">cache + node_modules</text>
  <text x="44" y="45" class="font s4" dominant-baseline="middle" text-anchor="end">node_modules + lockfile</text>
  <text x="44" y="50.5" class="font s4" dominant-baseline="middle" text-anchor="end">node_modules</text>
  <text x="44" y="56" class="font s4" dominant-baseline="middle" text-anchor="end">update</text>
  <text x="48" y="65" class="font s5" dominant-baseline="middle" text-anchor="start">bun v1.0.24</text>
  <text x="44" y="70.5" class="font s4" dominant-baseline="middle" text-anchor="end">clean install</text>
  <text x="44" y="76" class="font s4" dominant-baseline="middle" text-anchor="end">cache + lockfile + node_modules</text>
  <text x="44" y="81.5" class="font s4" dominant-baseline="middle" text-anchor="end">cache + lockfile</text>
  <text x="44" y="87" class="font s4" dominant-baseline="middle" text-anchor="end">cache</text>
  <text x="44" y="92.5" class="font s4" dominant-baseline="middle" text-anchor="end">lockfile</text>
  <text x="44" y="98" class="font s4" dominant-baseline="middle" text-anchor="end">cache + node_modules</text>
  <text x="44" y="103.5" class="font s4" dominant-baseline="middle" text-anchor="end">node_modules + lockfile</text>
  <text x="44" y="109" class="font s4" dominant-baseline="middle" text-anchor="end">node_modules</text>
  <text x="44" y="114.5" class="font s4" dominant-baseline="middle" text-anchor="end">update</text>
  <text x="48" y="123.5" class="font s5" dominant-baseline="middle" text-anchor="start">bun v1.0.23</text>
  <text x="44" y="129" class="font s4" dominant-baseline="middle" text-anchor="end">clean install</text>
  <text x="44" y="134.5" class="font s4" dominant-baseline="middle" text-anchor="end">cache + lockfile + node_modules</text>
  <text x="44" y="140" class="font s4" dominant-baseline="middle" text-anchor="end">cache + lockfile</text>
  <text x="44" y="145.5" class="font s4" dominant-baseline="middle" text-anchor="end">cache</text>
  <text x="44" y="151" class="font s4" dominant-baseline="middle" text-anchor="end">lockfile</text>
  <text x="44" y="156.5" class="font s4" dominant-baseline="middle" text-anchor="end">cache + node_modules</text>
  <text x="44" y="162" class="font s4" dominant-baseline="middle" text-anchor="end">node_modules + lockfile</text>
  <text x="44" y="167.5" class="font s4" dominant-baseline="middle" text-anchor="end">node_modules</text>
  <text x="44" y="173" class="font s4" dominant-baseline="middle" text-anchor="end">update</text>
  <text x="48" y="182" class="font s5" dominant-baseline="middle" text-anchor="start">bun v1.0.22</text>
  <text x="44" y="187.5" class="font s4" dominant-baseline="middle" text-anchor="end">clean install</text>
  <text x="44" y="193" class="font s4" dominant-baseline="middle" text-anchor="end">cache + lockfile + node_modules</text>
  <text x="44" y="198.5" class="font s4" dominant-baseline="middle" text-anchor="end">cache + lockfile</text>
  <text x="44" y="204" class="font s4" dominant-baseline="middle" text-anchor="end">cache</text>
  <text x="44" y="209.5" class="font s4" dominant-baseline="middle" text-anchor="end">lockfile</text>
  <text x="44" y="215" class="font s4" dominant-baseline="middle" text-anchor="end">cache + node_modules</text>
  <text x="44" y="220.5" class="font s4" dominant-baseline="middle" text-anchor="end">node_modules + lockfile</text>
  <text x="44" y="226" class="font s4" dominant-baseline="middle" text-anchor="end">node_modules</text>
  <text x="44" y="231.5" class="font s4" dominant-baseline="middle" text-anchor="end">update</text>
  <text x="296" y="256" class="font s4 text" text-anchor="end">Tests were run using bun with Node.js v20.11.0 at: 26 janv. 2024, 07:30</text>
</svg>
