<svg version="1.1" xmlns="http://www.w3.org/2000/svg" viewBox="0 0 306 784.5">
  <style>
    .font { font-family: sans-serif; }
    .s2 { font-size: 2px; }
    .s3 { font-size: 3px; }
    .s4 { font-size: 4px; }
    .s5 { font-size: 5px; }
    .line { stroke: #cacaca; }
    .width { stroke-width: 0.5; }
    .text { fill: #888; }
    .bold { font-weight: bold; }
  </style>
  <rect x="0" y="0" width="306" height="784.5" fill="#fff"></rect>
  <rect x="46" y="10" width="207" height="4" fill="hsl(0, 100%, 45%)" rx="1" ry="1"></rect>
  <text x="255" y="12" fill="hsl(0, 100%, 20%)" dominant-baseline="middle" class="font s4">2.4s</text>
  <rect x="46" y="15.5" width="5" height="4" fill="hsl(0, 100%, 45%)" rx="1" ry="1"></rect>
  <text x="53" y="17.5" fill="hsl(0, 100%, 20%)" dominant-baseline="middle" class="font s4">62ms</text>
  <rect x="46" y="21" width="60" height="4" fill="hsl(0, 100%, 45%)" rx="1" ry="1"></rect>
  <text x="108" y="23" fill="hsl(0, 100%, 20%)" dominant-baseline="middle" class="font s4">701ms</text>
  <rect x="46" y="26.5" width="60" height="4" fill="hsl(0, 100%, 45%)" rx="1" ry="1"></rect>
  <text x="108" y="28.5" fill="hsl(0, 100%, 20%)" dominant-baseline="middle" class="font s4">700ms</text>
  <rect x="46" y="32" width="59" height="4" fill="hsl(0, 100%, 45%)" rx="1" ry="1"></rect>
  <text x="107" y="34" fill="hsl(0, 100%, 20%)" dominant-baseline="middle" class="font s4">687ms</text>
  <rect x="46" y="37.5" width="7" height="4" fill="hsl(0, 100%, 45%)" rx="1" ry="1"></rect>
  <text x="55" y="39.5" fill="hsl(0, 100%, 20%)" dominant-baseline="middle" class="font s4">82ms</text>
  <rect x="46" y="43" width="5" height="4" fill="hsl(0, 100%, 45%)" rx="1" ry="1"></rect>
  <text x="53" y="45" fill="hsl(0, 100%, 20%)" dominant-baseline="middle" class="font s4">58ms</text>
  <rect x="46" y="48.5" width="7" height="4" fill="hsl(0, 100%, 45%)" rx="1" ry="1"></rect>
  <text x="55" y="50.5" fill="hsl(0, 100%, 20%)" dominant-baseline="middle" class="font s4">80ms</text>
  <rect x="46" y="54" width="9" height="4" fill="hsl(0, 100%, 45%)" rx="1" ry="1"></rect>
  <text x="57" y="56" fill="hsl(0, 100%, 20%)" dominant-baseline="middle" class="font s4">108ms</text>
  <rect x="46" y="68.5" width="191" height="4" fill="hsl(27.692307692307693, 100%, 45%)" rx="1" ry="1"></rect>
  <text x="239" y="70.5" fill="hsl(27.692307692307693, 100%, 20%)" dominant-baseline="middle" class="font s4">2.2s</text>
  <rect x="46" y="74" width="5" height="4" fill="hsl(27.692307692307693, 100%, 45%)" rx="1" ry="1"></rect>
  <text x="53" y="76" fill="hsl(27.692307692307693, 100%, 20%)" dominant-baseline="middle" class="font s4">57ms</text>
  <rect x="46" y="79.5" width="59" height="4" fill="hsl(27.692307692307693, 100%, 45%)" rx="1" ry="1"></rect>
  <text x="107" y="81.5" fill="hsl(27.692307692307693, 100%, 20%)" dominant-baseline="middle" class="font s4">689ms</text>
  <rect x="46" y="85" width="60" height="4" fill="hsl(27.692307692307693, 100%, 45%)" rx="1" ry="1"></rect>
  <text x="108" y="87" fill="hsl(27.692307692307693, 100%, 20%)" dominant-baseline="middle" class="font s4">704ms</text>
  <rect x="46" y="90.5" width="59" height="4" fill="hsl(27.692307692307693, 100%, 45%)" rx="1" ry="1"></rect>
  <text x="107" y="92.5" fill="hsl(27.692307692307693, 100%, 20%)" dominant-baseline="middle" class="font s4">686ms</text>
  <rect x="46" y="96" width="7" height="4" fill="hsl(27.692307692307693, 100%, 45%)" rx="1" ry="1"></rect>
  <text x="55" y="98" fill="hsl(27.692307692307693, 100%, 20%)" dominant-baseline="middle" class="font s4">80ms</text>
  <rect x="46" y="101.5" width="5" height="4" fill="hsl(27.692307692307693, 100%, 45%)" rx="1" ry="1"></rect>
  <text x="53" y="103.5" fill="hsl(27.692307692307693, 100%, 20%)" dominant-baseline="middle" class="font s4">58ms</text>
  <rect x="46" y="107" width="7" height="4" fill="hsl(27.692307692307693, 100%, 45%)" rx="1" ry="1"></rect>
  <text x="55" y="109" fill="hsl(27.692307692307693, 100%, 20%)" dominant-baseline="middle" class="font s4">77ms</text>
  <rect x="46" y="112.5" width="8" height="4" fill="hsl(27.692307692307693, 100%, 45%)" rx="1" ry="1"></rect>
  <text x="56" y="114.5" fill="hsl(27.692307692307693, 100%, 20%)" dominant-baseline="middle" class="font s4">99ms</text>
  <rect x="46" y="127" width="184" height="4" fill="hsl(55.38461538461539, 100%, 45%)" rx="1" ry="1"></rect>
  <text x="232" y="129" fill="hsl(55.38461538461539, 100%, 20%)" dominant-baseline="middle" class="font s4">2.1s</text>
  <rect x="46" y="132.5" width="5" height="4" fill="hsl(55.38461538461539, 100%, 45%)" rx="1" ry="1"></rect>
  <text x="53" y="134.5" fill="hsl(55.38461538461539, 100%, 20%)" dominant-baseline="middle" class="font s4">59ms</text>
  <rect x="46" y="138" width="59" height="4" fill="hsl(55.38461538461539, 100%, 45%)" rx="1" ry="1"></rect>
  <text x="107" y="140" fill="hsl(55.38461538461539, 100%, 20%)" dominant-baseline="middle" class="font s4">694ms</text>
  <rect x="46" y="143.5" width="61" height="4" fill="hsl(55.38461538461539, 100%, 45%)" rx="1" ry="1"></rect>
  <text x="109" y="145.5" fill="hsl(55.38461538461539, 100%, 20%)" dominant-baseline="middle" class="font s4">712ms</text>
  <rect x="46" y="149" width="58" height="4" fill="hsl(55.38461538461539, 100%, 45%)" rx="1" ry="1"></rect>
  <text x="106" y="151" fill="hsl(55.38461538461539, 100%, 20%)" dominant-baseline="middle" class="font s4">682ms</text>
  <rect x="46" y="154.5" width="7" height="4" fill="hsl(55.38461538461539, 100%, 45%)" rx="1" ry="1"></rect>
  <text x="55" y="156.5" fill="hsl(55.38461538461539, 100%, 20%)" dominant-baseline="middle" class="font s4">79ms</text>
  <rect x="46" y="160" width="5" height="4" fill="hsl(55.38461538461539, 100%, 45%)" rx="1" ry="1"></rect>
  <text x="53" y="162" fill="hsl(55.38461538461539, 100%, 20%)" dominant-baseline="middle" class="font s4">55ms</text>
  <rect x="46" y="165.5" width="7" height="4" fill="hsl(55.38461538461539, 100%, 45%)" rx="1" ry="1"></rect>
  <text x="55" y="167.5" fill="hsl(55.38461538461539, 100%, 20%)" dominant-baseline="middle" class="font s4">84ms</text>
  <rect x="46" y="171" width="8" height="4" fill="hsl(55.38461538461539, 100%, 45%)" rx="1" ry="1"></rect>
  <text x="56" y="173" fill="hsl(55.38461538461539, 100%, 20%)" dominant-baseline="middle" class="font s4">97ms</text>
  <rect x="46" y="185.5" width="202" height="4" fill="hsl(83.07692307692308, 100%, 45%)" rx="1" ry="1"></rect>
  <text x="250" y="187.5" fill="hsl(83.07692307692308, 100%, 20%)" dominant-baseline="middle" class="font s4">2.3s</text>
  <rect x="46" y="191" width="6" height="4" fill="hsl(83.07692307692308, 100%, 45%)" rx="1" ry="1"></rect>
  <text x="54" y="193" fill="hsl(83.07692307692308, 100%, 20%)" dominant-baseline="middle" class="font s4">65ms</text>
  <rect x="46" y="196.5" width="61" height="4" fill="hsl(83.07692307692308, 100%, 45%)" rx="1" ry="1"></rect>
  <text x="109" y="198.5" fill="hsl(83.07692307692308, 100%, 20%)" dominant-baseline="middle" class="font s4">711ms</text>
  <rect x="46" y="202" width="62" height="4" fill="hsl(83.07692307692308, 100%, 45%)" rx="1" ry="1"></rect>
  <text x="110" y="204" fill="hsl(83.07692307692308, 100%, 20%)" dominant-baseline="middle" class="font s4">722ms</text>
  <rect x="46" y="207.5" width="59" height="4" fill="hsl(83.07692307692308, 100%, 45%)" rx="1" ry="1"></rect>
  <text x="107" y="209.5" fill="hsl(83.07692307692308, 100%, 20%)" dominant-baseline="middle" class="font s4">691ms</text>
  <rect x="46" y="213" width="7" height="4" fill="hsl(83.07692307692308, 100%, 45%)" rx="1" ry="1"></rect>
  <text x="55" y="215" fill="hsl(83.07692307692308, 100%, 20%)" dominant-baseline="middle" class="font s4">83ms</text>
  <rect x="46" y="218.5" width="5" height="4" fill="hsl(83.07692307692308, 100%, 45%)" rx="1" ry="1"></rect>
  <text x="53" y="220.5" fill="hsl(83.07692307692308, 100%, 20%)" dominant-baseline="middle" class="font s4">55ms</text>
  <rect x="46" y="224" width="7" height="4" fill="hsl(83.07692307692308, 100%, 45%)" rx="1" ry="1"></rect>
  <text x="55" y="226" fill="hsl(83.07692307692308, 100%, 20%)" dominant-baseline="middle" class="font s4">81ms</text>
  <rect x="46" y="229.5" width="9" height="4" fill="hsl(83.07692307692308, 100%, 45%)" rx="1" ry="1"></rect>
  <text x="57" y="231.5" fill="hsl(83.07692307692308, 100%, 20%)" dominant-baseline="middle" class="font s4">107ms</text>
  <rect x="46" y="244" width="171" height="4" fill="hsl(110.76923076923077, 100%, 45%)" rx="1" ry="1"></rect>
  <text x="219" y="246" fill="hsl(110.76923076923077, 100%, 20%)" dominant-baseline="middle" class="font s4">2s</text>
  <rect x="46" y="249.5" width="5" height="4" fill="hsl(110.76923076923077, 100%, 45%)" rx="1" ry="1"></rect>
  <text x="53" y="251.5" fill="hsl(110.76923076923077, 100%, 20%)" dominant-baseline="middle" class="font s4">56ms</text>
  <rect x="46" y="255" width="58" height="4" fill="hsl(110.76923076923077, 100%, 45%)" rx="1" ry="1"></rect>
  <text x="106" y="257" fill="hsl(110.76923076923077, 100%, 20%)" dominant-baseline="middle" class="font s4">676ms</text>
  <rect x="46" y="260.5" width="60" height="4" fill="hsl(110.76923076923077, 100%, 45%)" rx="1" ry="1"></rect>
  <text x="108" y="262.5" fill="hsl(110.76923076923077, 100%, 20%)" dominant-baseline="middle" class="font s4">702ms</text>
  <rect x="46" y="266" width="58" height="4" fill="hsl(110.76923076923077, 100%, 45%)" rx="1" ry="1"></rect>
  <text x="106" y="268" fill="hsl(110.76923076923077, 100%, 20%)" dominant-baseline="middle" class="font s4">678ms</text>
  <rect x="46" y="271.5" width="7" height="4" fill="hsl(110.76923076923077, 100%, 45%)" rx="1" ry="1"></rect>
  <text x="55" y="273.5" fill="hsl(110.76923076923077, 100%, 20%)" dominant-baseline="middle" class="font s4">77ms</text>
  <rect x="46" y="277" width="4" height="4" fill="hsl(110.76923076923077, 100%, 45%)" rx="1" ry="1"></rect>
  <text x="52" y="279" fill="hsl(110.76923076923077, 100%, 20%)" dominant-baseline="middle" class="font s4">51ms</text>
  <rect x="46" y="282.5" width="6" height="4" fill="hsl(110.76923076923077, 100%, 45%)" rx="1" ry="1"></rect>
  <text x="54" y="284.5" fill="hsl(110.76923076923077, 100%, 20%)" dominant-baseline="middle" class="font s4">75ms</text>
  <rect x="46" y="288" width="9" height="4" fill="hsl(110.76923076923077, 100%, 45%)" rx="1" ry="1"></rect>
  <text x="57" y="290" fill="hsl(110.76923076923077, 100%, 20%)" dominant-baseline="middle" class="font s4">103ms</text>
  <rect x="46" y="302.5" width="168" height="4" fill="hsl(138.46153846153845, 100%, 45%)" rx="1" ry="1"></rect>
  <text x="216" y="304.5" fill="hsl(138.46153846153845, 100%, 20%)" dominant-baseline="middle" class="font s4">1.9s</text>
  <rect x="46" y="308" width="5" height="4" fill="hsl(138.46153846153845, 100%, 45%)" rx="1" ry="1"></rect>
  <text x="53" y="310" fill="hsl(138.46153846153845, 100%, 20%)" dominant-baseline="middle" class="font s4">61ms</text>
  <rect x="46" y="313.5" width="56" height="4" fill="hsl(138.46153846153845, 100%, 45%)" rx="1" ry="1"></rect>
  <text x="104" y="315.5" fill="hsl(138.46153846153845, 100%, 20%)" dominant-baseline="middle" class="font s4">658ms</text>
  <rect x="46" y="319" width="58" height="4" fill="hsl(138.46153846153845, 100%, 45%)" rx="1" ry="1"></rect>
  <text x="106" y="321" fill="hsl(138.46153846153845, 100%, 20%)" dominant-baseline="middle" class="font s4">677ms</text>
  <rect x="46" y="324.5" width="57" height="4" fill="hsl(138.46153846153845, 100%, 45%)" rx="1" ry="1"></rect>
  <text x="105" y="326.5" fill="hsl(138.46153846153845, 100%, 20%)" dominant-baseline="middle" class="font s4">666ms</text>
  <rect x="46" y="330" width="7" height="4" fill="hsl(138.46153846153845, 100%, 45%)" rx="1" ry="1"></rect>
  <text x="55" y="332" fill="hsl(138.46153846153845, 100%, 20%)" dominant-baseline="middle" class="font s4">78ms</text>
  <rect x="46" y="335.5" width="5" height="4" fill="hsl(138.46153846153845, 100%, 45%)" rx="1" ry="1"></rect>
  <text x="53" y="337.5" fill="hsl(138.46153846153845, 100%, 20%)" dominant-baseline="middle" class="font s4">55ms</text>
  <rect x="46" y="341" width="6" height="4" fill="hsl(138.46153846153845, 100%, 45%)" rx="1" ry="1"></rect>
  <text x="54" y="343" fill="hsl(138.46153846153845, 100%, 20%)" dominant-baseline="middle" class="font s4">76ms</text>
  <rect x="46" y="346.5" width="9" height="4" fill="hsl(138.46153846153845, 100%, 45%)" rx="1" ry="1"></rect>
  <text x="57" y="348.5" fill="hsl(138.46153846153845, 100%, 20%)" dominant-baseline="middle" class="font s4">100ms</text>
  <rect x="46" y="361" width="197" height="4" fill="hsl(166.15384615384616, 100%, 45%)" rx="1" ry="1"></rect>
  <text x="245" y="363" fill="hsl(166.15384615384616, 100%, 20%)" dominant-baseline="middle" class="font s4">2.3s</text>
  <rect x="46" y="366.5" width="6" height="4" fill="hsl(166.15384615384616, 100%, 45%)" rx="1" ry="1"></rect>
  <text x="54" y="368.5" fill="hsl(166.15384615384616, 100%, 20%)" dominant-baseline="middle" class="font s4">65ms</text>
  <rect x="46" y="372" width="59" height="4" fill="hsl(166.15384615384616, 100%, 45%)" rx="1" ry="1"></rect>
  <text x="107" y="374" fill="hsl(166.15384615384616, 100%, 20%)" dominant-baseline="middle" class="font s4">689ms</text>
  <rect x="46" y="377.5" width="59" height="4" fill="hsl(166.15384615384616, 100%, 45%)" rx="1" ry="1"></rect>
  <text x="107" y="379.5" fill="hsl(166.15384615384616, 100%, 20%)" dominant-baseline="middle" class="font s4">687ms</text>
  <rect x="46" y="383" width="58" height="4" fill="hsl(166.15384615384616, 100%, 45%)" rx="1" ry="1"></rect>
  <text x="106" y="385" fill="hsl(166.15384615384616, 100%, 20%)" dominant-baseline="middle" class="font s4">679ms</text>
  <rect x="46" y="388.5" width="7" height="4" fill="hsl(166.15384615384616, 100%, 45%)" rx="1" ry="1"></rect>
  <text x="55" y="390.5" fill="hsl(166.15384615384616, 100%, 20%)" dominant-baseline="middle" class="font s4">78ms</text>
  <rect x="46" y="394" width="5" height="4" fill="hsl(166.15384615384616, 100%, 45%)" rx="1" ry="1"></rect>
  <text x="53" y="396" fill="hsl(166.15384615384616, 100%, 20%)" dominant-baseline="middle" class="font s4">56ms</text>
  <rect x="46" y="399.5" width="6" height="4" fill="hsl(166.15384615384616, 100%, 45%)" rx="1" ry="1"></rect>
  <text x="54" y="401.5" fill="hsl(166.15384615384616, 100%, 20%)" dominant-baseline="middle" class="font s4">76ms</text>
  <rect x="46" y="405" width="9" height="4" fill="hsl(166.15384615384616, 100%, 45%)" rx="1" ry="1"></rect>
  <text x="57" y="407" fill="hsl(166.15384615384616, 100%, 20%)" dominant-baseline="middle" class="font s4">103ms</text>
  <rect x="46" y="419.5" width="250" height="4" fill="hsl(193.84615384615384, 100%, 45%)" rx="1" ry="1"></rect>
  <text x="298" y="421.5" fill="hsl(193.84615384615384, 100%, 20%)" dominant-baseline="middle" class="font s4">2.9s</text>
  <rect x="46" y="425" width="5" height="4" fill="hsl(193.84615384615384, 100%, 45%)" rx="1" ry="1"></rect>
  <text x="53" y="427" fill="hsl(193.84615384615384, 100%, 20%)" dominant-baseline="middle" class="font s4">62ms</text>
  <rect x="46" y="430.5" width="60" height="4" fill="hsl(193.84615384615384, 100%, 45%)" rx="1" ry="1"></rect>
  <text x="108" y="432.5" fill="hsl(193.84615384615384, 100%, 20%)" dominant-baseline="middle" class="font s4">705ms</text>
  <rect x="46" y="436" width="60" height="4" fill="hsl(193.84615384615384, 100%, 45%)" rx="1" ry="1"></rect>
  <text x="108" y="438" fill="hsl(193.84615384615384, 100%, 20%)" dominant-baseline="middle" class="font s4">697ms</text>
  <rect x="46" y="441.5" width="58" height="4" fill="hsl(193.84615384615384, 100%, 45%)" rx="1" ry="1"></rect>
  <text x="106" y="443.5" fill="hsl(193.84615384615384, 100%, 20%)" dominant-baseline="middle" class="font s4">676ms</text>
  <rect x="46" y="447" width="8" height="4" fill="hsl(193.84615384615384, 100%, 45%)" rx="1" ry="1"></rect>
  <text x="56" y="449" fill="hsl(193.84615384615384, 100%, 20%)" dominant-baseline="middle" class="font s4">97ms</text>
  <rect x="46" y="452.5" width="6" height="4" fill="hsl(193.84615384615384, 100%, 45%)" rx="1" ry="1"></rect>
  <text x="54" y="454.5" fill="hsl(193.84615384615384, 100%, 20%)" dominant-baseline="middle" class="font s4">72ms</text>
  <rect x="46" y="458" width="8" height="4" fill="hsl(193.84615384615384, 100%, 45%)" rx="1" ry="1"></rect>
  <text x="56" y="460" fill="hsl(193.84615384615384, 100%, 20%)" dominant-baseline="middle" class="font s4">91ms</text>
  <rect x="46" y="463.5" width="10" height="4" fill="hsl(193.84615384615384, 100%, 45%)" rx="1" ry="1"></rect>
  <text x="58" y="465.5" fill="hsl(193.84615384615384, 100%, 20%)" dominant-baseline="middle" class="font s4">115ms</text>
  <rect x="46" y="478" width="184" height="4" fill="hsl(221.53846153846155, 100%, 45%)" rx="1" ry="1"></rect>
  <text x="232" y="480" fill="hsl(221.53846153846155, 100%, 20%)" dominant-baseline="middle" class="font s4">2.1s</text>
  <rect x="46" y="483.5" width="5" height="4" fill="hsl(221.53846153846155, 100%, 45%)" rx="1" ry="1"></rect>
  <text x="53" y="485.5" fill="hsl(221.53846153846155, 100%, 20%)" dominant-baseline="middle" class="font s4">59ms</text>
  <rect x="46" y="489" width="58" height="4" fill="hsl(221.53846153846155, 100%, 45%)" rx="1" ry="1"></rect>
  <text x="106" y="491" fill="hsl(221.53846153846155, 100%, 20%)" dominant-baseline="middle" class="font s4">674ms</text>
  <rect x="46" y="494.5" width="58" height="4" fill="hsl(221.53846153846155, 100%, 45%)" rx="1" ry="1"></rect>
  <text x="106" y="496.5" fill="hsl(221.53846153846155, 100%, 20%)" dominant-baseline="middle" class="font s4">681ms</text>
  <rect x="46" y="500" width="56" height="4" fill="hsl(221.53846153846155, 100%, 45%)" rx="1" ry="1"></rect>
  <text x="104" y="502" fill="hsl(221.53846153846155, 100%, 20%)" dominant-baseline="middle" class="font s4">659ms</text>
  <rect x="46" y="505.5" width="7" height="4" fill="hsl(221.53846153846155, 100%, 45%)" rx="1" ry="1"></rect>
  <text x="55" y="507.5" fill="hsl(221.53846153846155, 100%, 20%)" dominant-baseline="middle" class="font s4">82ms</text>
  <rect x="46" y="511" width="5" height="4" fill="hsl(221.53846153846155, 100%, 45%)" rx="1" ry="1"></rect>
  <text x="53" y="513" fill="hsl(221.53846153846155, 100%, 20%)" dominant-baseline="middle" class="font s4">55ms</text>
  <rect x="46" y="516.5" width="6" height="4" fill="hsl(221.53846153846155, 100%, 45%)" rx="1" ry="1"></rect>
  <text x="54" y="518.5" fill="hsl(221.53846153846155, 100%, 20%)" dominant-baseline="middle" class="font s4">75ms</text>
  <rect x="46" y="522" width="9" height="4" fill="hsl(221.53846153846155, 100%, 45%)" rx="1" ry="1"></rect>
  <text x="57" y="524" fill="hsl(221.53846153846155, 100%, 20%)" dominant-baseline="middle" class="font s4">101ms</text>
  <rect x="46" y="536.5" width="160" height="4" fill="hsl(249.23076923076923, 100%, 45%)" rx="1" ry="1"></rect>
  <text x="208" y="538.5" fill="hsl(249.23076923076923, 100%, 20%)" dominant-baseline="middle" class="font s4">1.8s</text>
  <rect x="46" y="542" width="5" height="4" fill="hsl(249.23076923076923, 100%, 45%)" rx="1" ry="1"></rect>
  <text x="53" y="544" fill="hsl(249.23076923076923, 100%, 20%)" dominant-baseline="middle" class="font s4">64ms</text>
  <rect x="46" y="547.5" width="56" height="4" fill="hsl(249.23076923076923, 100%, 45%)" rx="1" ry="1"></rect>
  <text x="104" y="549.5" fill="hsl(249.23076923076923, 100%, 20%)" dominant-baseline="middle" class="font s4">660ms</text>
  <rect x="46" y="553" width="57" height="4" fill="hsl(249.23076923076923, 100%, 45%)" rx="1" ry="1"></rect>
  <text x="105" y="555" fill="hsl(249.23076923076923, 100%, 20%)" dominant-baseline="middle" class="font s4">665ms</text>
  <rect x="46" y="558.5" width="55" height="4" fill="hsl(249.23076923076923, 100%, 45%)" rx="1" ry="1"></rect>
  <text x="103" y="560.5" fill="hsl(249.23076923076923, 100%, 20%)" dominant-baseline="middle" class="font s4">648ms</text>
  <rect x="46" y="564" width="7" height="4" fill="hsl(249.23076923076923, 100%, 45%)" rx="1" ry="1"></rect>
  <text x="55" y="566" fill="hsl(249.23076923076923, 100%, 20%)" dominant-baseline="middle" class="font s4">81ms</text>
  <rect x="46" y="569.5" width="5" height="4" fill="hsl(249.23076923076923, 100%, 45%)" rx="1" ry="1"></rect>
  <text x="53" y="571.5" fill="hsl(249.23076923076923, 100%, 20%)" dominant-baseline="middle" class="font s4">55ms</text>
  <rect x="46" y="575" width="6" height="4" fill="hsl(249.23076923076923, 100%, 45%)" rx="1" ry="1"></rect>
  <text x="54" y="577" fill="hsl(249.23076923076923, 100%, 20%)" dominant-baseline="middle" class="font s4">72ms</text>
  <rect x="46" y="580.5" width="9" height="4" fill="hsl(249.23076923076923, 100%, 45%)" rx="1" ry="1"></rect>
  <text x="57" y="582.5" fill="hsl(249.23076923076923, 100%, 20%)" dominant-baseline="middle" class="font s4">104ms</text>
  <rect x="46" y="595" width="174" height="4" fill="hsl(276.9230769230769, 100%, 45%)" rx="1" ry="1"></rect>
  <text x="222" y="597" fill="hsl(276.9230769230769, 100%, 20%)" dominant-baseline="middle" class="font s4">2s</text>
  <rect x="46" y="600.5" width="6" height="4" fill="hsl(276.9230769230769, 100%, 45%)" rx="1" ry="1"></rect>
  <text x="54" y="602.5" fill="hsl(276.9230769230769, 100%, 20%)" dominant-baseline="middle" class="font s4">69ms</text>
  <rect x="46" y="606" width="56" height="4" fill="hsl(276.9230769230769, 100%, 45%)" rx="1" ry="1"></rect>
  <text x="104" y="608" fill="hsl(276.9230769230769, 100%, 20%)" dominant-baseline="middle" class="font s4">659ms</text>
  <rect x="46" y="611.5" width="58" height="4" fill="hsl(276.9230769230769, 100%, 45%)" rx="1" ry="1"></rect>
  <text x="106" y="613.5" fill="hsl(276.9230769230769, 100%, 20%)" dominant-baseline="middle" class="font s4">674ms</text>
  <rect x="46" y="617" width="56" height="4" fill="hsl(276.9230769230769, 100%, 45%)" rx="1" ry="1"></rect>
  <text x="104" y="619" fill="hsl(276.9230769230769, 100%, 20%)" dominant-baseline="middle" class="font s4">659ms</text>
  <rect x="46" y="622.5" width="7" height="4" fill="hsl(276.9230769230769, 100%, 45%)" rx="1" ry="1"></rect>
  <text x="55" y="624.5" fill="hsl(276.9230769230769, 100%, 20%)" dominant-baseline="middle" class="font s4">83ms</text>
  <rect x="46" y="628" width="5" height="4" fill="hsl(276.9230769230769, 100%, 45%)" rx="1" ry="1"></rect>
  <text x="53" y="630" fill="hsl(276.9230769230769, 100%, 20%)" dominant-baseline="middle" class="font s4">60ms</text>
  <rect x="46" y="633.5" width="6" height="4" fill="hsl(276.9230769230769, 100%, 45%)" rx="1" ry="1"></rect>
  <text x="54" y="635.5" fill="hsl(276.9230769230769, 100%, 20%)" dominant-baseline="middle" class="font s4">76ms</text>
  <rect x="46" y="639" width="11" height="4" fill="hsl(276.9230769230769, 100%, 45%)" rx="1" ry="1"></rect>
  <text x="59" y="641" fill="hsl(276.9230769230769, 100%, 20%)" dominant-baseline="middle" class="font s4">127ms</text>
  <rect x="46" y="653.5" width="195" height="4" fill="hsl(304.61538461538464, 100%, 45%)" rx="1" ry="1"></rect>
  <text x="243" y="655.5" fill="hsl(304.61538461538464, 100%, 20%)" dominant-baseline="middle" class="font s4">2.2s</text>
  <rect x="46" y="659" width="6" height="4" fill="hsl(304.61538461538464, 100%, 45%)" rx="1" ry="1"></rect>
  <text x="54" y="661" fill="hsl(304.61538461538464, 100%, 20%)" dominant-baseline="middle" class="font s4">65ms</text>
  <rect x="46" y="664.5" width="55" height="4" fill="hsl(304.61538461538464, 100%, 45%)" rx="1" ry="1"></rect>
  <text x="103" y="666.5" fill="hsl(304.61538461538464, 100%, 20%)" dominant-baseline="middle" class="font s4">648ms</text>
  <rect x="46" y="670" width="57" height="4" fill="hsl(304.61538461538464, 100%, 45%)" rx="1" ry="1"></rect>
  <text x="105" y="672" fill="hsl(304.61538461538464, 100%, 20%)" dominant-baseline="middle" class="font s4">663ms</text>
  <rect x="46" y="675.5" width="55" height="4" fill="hsl(304.61538461538464, 100%, 45%)" rx="1" ry="1"></rect>
  <text x="103" y="677.5" fill="hsl(304.61538461538464, 100%, 20%)" dominant-baseline="middle" class="font s4">647ms</text>
  <rect x="46" y="681" width="7" height="4" fill="hsl(304.61538461538464, 100%, 45%)" rx="1" ry="1"></rect>
  <text x="55" y="683" fill="hsl(304.61538461538464, 100%, 20%)" dominant-baseline="middle" class="font s4">81ms</text>
  <rect x="46" y="686.5" width="5" height="4" fill="hsl(304.61538461538464, 100%, 45%)" rx="1" ry="1"></rect>
  <text x="53" y="688.5" fill="hsl(304.61538461538464, 100%, 20%)" dominant-baseline="middle" class="font s4">55ms</text>
  <rect x="46" y="692" width="7" height="4" fill="hsl(304.61538461538464, 100%, 45%)" rx="1" ry="1"></rect>
  <text x="55" y="694" fill="hsl(304.61538461538464, 100%, 20%)" dominant-baseline="middle" class="font s4">80ms</text>
  <rect x="46" y="697.5" width="9" height="4" fill="hsl(304.61538461538464, 100%, 45%)" rx="1" ry="1"></rect>
  <text x="57" y="699.5" fill="hsl(304.61538461538464, 100%, 20%)" dominant-baseline="middle" class="font s4">100ms</text>
  <rect x="46" y="712" width="245" height="4" fill="hsl(332.3076923076923, 100%, 45%)" rx="1" ry="1"></rect>
  <text x="293" y="714" fill="hsl(332.3076923076923, 100%, 20%)" dominant-baseline="middle" class="font s4">2.8s</text>
  <rect x="46" y="717.5" width="6" height="4" fill="hsl(332.3076923076923, 100%, 45%)" rx="1" ry="1"></rect>
  <text x="54" y="719.5" fill="hsl(332.3076923076923, 100%, 20%)" dominant-baseline="middle" class="font s4">67ms</text>
  <rect x="46" y="723" width="58" height="4" fill="hsl(332.3076923076923, 100%, 45%)" rx="1" ry="1"></rect>
  <text x="106" y="725" fill="hsl(332.3076923076923, 100%, 20%)" dominant-baseline="middle" class="font s4">677ms</text>
  <rect x="46" y="728.5" width="58" height="4" fill="hsl(332.3076923076923, 100%, 45%)" rx="1" ry="1"></rect>
  <text x="106" y="730.5" fill="hsl(332.3076923076923, 100%, 20%)" dominant-baseline="middle" class="font s4">679ms</text>
  <rect x="46" y="734" width="57" height="4" fill="hsl(332.3076923076923, 100%, 45%)" rx="1" ry="1"></rect>
  <text x="105" y="736" fill="hsl(332.3076923076923, 100%, 20%)" dominant-baseline="middle" class="font s4">669ms</text>
  <rect x="46" y="739.5" width="7" height="4" fill="hsl(332.3076923076923, 100%, 45%)" rx="1" ry="1"></rect>
  <text x="55" y="741.5" fill="hsl(332.3076923076923, 100%, 20%)" dominant-baseline="middle" class="font s4">83ms</text>
  <rect x="46" y="745" width="5" height="4" fill="hsl(332.3076923076923, 100%, 45%)" rx="1" ry="1"></rect>
  <text x="53" y="747" fill="hsl(332.3076923076923, 100%, 20%)" dominant-baseline="middle" class="font s4">60ms</text>
  <rect x="46" y="750.5" width="6" height="4" fill="hsl(332.3076923076923, 100%, 45%)" rx="1" ry="1"></rect>
  <text x="54" y="752.5" fill="hsl(332.3076923076923, 100%, 20%)" dominant-baseline="middle" class="font s4">75ms</text>
  <rect x="46" y="756" width="9" height="4" fill="hsl(332.3076923076923, 100%, 45%)" rx="1" ry="1"></rect>
  <text x="57" y="758" fill="hsl(332.3076923076923, 100%, 20%)" dominant-baseline="middle" class="font s4">104ms</text>
  <text x="48" y="6.5" class="font s5" dominant-baseline="middle" text-anchor="start">bun v1.0.36</text>
  <text x="44" y="12" class="font s4" dominant-baseline="middle" text-anchor="end">clean install</text>
  <text x="44" y="17.5" class="font s4" dominant-baseline="middle" text-anchor="end">cache + lockfile + node_modules</text>
  <text x="44" y="23" class="font s4" dominant-baseline="middle" text-anchor="end">cache + lockfile</text>
  <text x="44" y="28.5" class="font s4" dominant-baseline="middle" text-anchor="end">cache</text>
  <text x="44" y="34" class="font s4" dominant-baseline="middle" text-anchor="end">lockfile</text>
  <text x="44" y="39.5" class="font s4" dominant-baseline="middle" text-anchor="end">cache + node_modules</text>
  <text x="44" y="45" class="font s4" dominant-baseline="middle" text-anchor="end">node_modules + lockfile</text>
  <text x="44" y="50.5" class="font s4" dominant-baseline="middle" text-anchor="end">node_modules</text>
  <text x="44" y="56" class="font s4" dominant-baseline="middle" text-anchor="end">update</text>
  <text x="48" y="65" class="font s5" dominant-baseline="middle" text-anchor="start">bun v1.0.35</text>
  <text x="44" y="70.5" class="font s4" dominant-baseline="middle" text-anchor="end">clean install</text>
  <text x="44" y="76" class="font s4" dominant-baseline="middle" text-anchor="end">cache + lockfile + node_modules</text>
  <text x="44" y="81.5" class="font s4" dominant-baseline="middle" text-anchor="end">cache + lockfile</text>
  <text x="44" y="87" class="font s4" dominant-baseline="middle" text-anchor="end">cache</text>
  <text x="44" y="92.5" class="font s4" dominant-baseline="middle" text-anchor="end">lockfile</text>
  <text x="44" y="98" class="font s4" dominant-baseline="middle" text-anchor="end">cache + node_modules</text>
  <text x="44" y="103.5" class="font s4" dominant-baseline="middle" text-anchor="end">node_modules + lockfile</text>
  <text x="44" y="109" class="font s4" dominant-baseline="middle" text-anchor="end">node_modules</text>
  <text x="44" y="114.5" class="font s4" dominant-baseline="middle" text-anchor="end">update</text>
  <text x="48" y="123.5" class="font s5" dominant-baseline="middle" text-anchor="start">bun v1.0.33</text>
  <text x="44" y="129" class="font s4" dominant-baseline="middle" text-anchor="end">clean install</text>
  <text x="44" y="134.5" class="font s4" dominant-baseline="middle" text-anchor="end">cache + lockfile + node_modules</text>
  <text x="44" y="140" class="font s4" dominant-baseline="middle" text-anchor="end">cache + lockfile</text>
  <text x="44" y="145.5" class="font s4" dominant-baseline="middle" text-anchor="end">cache</text>
  <text x="44" y="151" class="font s4" dominant-baseline="middle" text-anchor="end">lockfile</text>
  <text x="44" y="156.5" class="font s4" dominant-baseline="middle" text-anchor="end">cache + node_modules</text>
  <text x="44" y="162" class="font s4" dominant-baseline="middle" text-anchor="end">node_modules + lockfile</text>
  <text x="44" y="167.5" class="font s4" dominant-baseline="middle" text-anchor="end">node_modules</text>
  <text x="44" y="173" class="font s4" dominant-baseline="middle" text-anchor="end">update</text>
  <text x="48" y="182" class="font s5" dominant-baseline="middle" text-anchor="start">bun v1.0.31</text>
  <text x="44" y="187.5" class="font s4" dominant-baseline="middle" text-anchor="end">clean install</text>
  <text x="44" y="193" class="font s4" dominant-baseline="middle" text-anchor="end">cache + lockfile + node_modules</text>
  <text x="44" y="198.5" class="font s4" dominant-baseline="middle" text-anchor="end">cache + lockfile</text>
  <text x="44" y="204" class="font s4" dominant-baseline="middle" text-anchor="end">cache</text>
  <text x="44" y="209.5" class="font s4" dominant-baseline="middle" text-anchor="end">lockfile</text>
  <text x="44" y="215" class="font s4" dominant-baseline="middle" text-anchor="end">cache + node_modules</text>
  <text x="44" y="220.5" class="font s4" dominant-baseline="middle" text-anchor="end">node_modules + lockfile</text>
  <text x="44" y="226" class="font s4" dominant-baseline="middle" text-anchor="end">node_modules</text>
  <text x="44" y="231.5" class="font s4" dominant-baseline="middle" text-anchor="end">update</text>
  <text x="48" y="240.5" class="font s5" dominant-baseline="middle" text-anchor="start">bun v1.0.30</text>
  <text x="44" y="246" class="font s4" dominant-baseline="middle" text-anchor="end">clean install</text>
  <text x="44" y="251.5" class="font s4" dominant-baseline="middle" text-anchor="end">cache + lockfile + node_modules</text>
  <text x="44" y="257" class="font s4" dominant-baseline="middle" text-anchor="end">cache + lockfile</text>
  <text x="44" y="262.5" class="font s4" dominant-baseline="middle" text-anchor="end">cache</text>
  <text x="44" y="268" class="font s4" dominant-baseline="middle" text-anchor="end">lockfile</text>
  <text x="44" y="273.5" class="font s4" dominant-baseline="middle" text-anchor="end">cache + node_modules</text>
  <text x="44" y="279" class="font s4" dominant-baseline="middle" text-anchor="end">node_modules + lockfile</text>
  <text x="44" y="284.5" class="font s4" dominant-baseline="middle" text-anchor="end">node_modules</text>
  <text x="44" y="290" class="font s4" dominant-baseline="middle" text-anchor="end">update</text>
  <text x="48" y="299" class="font s5" dominant-baseline="middle" text-anchor="start">bun v1.0.29</text>
  <text x="44" y="304.5" class="font s4" dominant-baseline="middle" text-anchor="end">clean install</text>
  <text x="44" y="310" class="font s4" dominant-baseline="middle" text-anchor="end">cache + lockfile + node_modules</text>
  <text x="44" y="315.5" class="font s4" dominant-baseline="middle" text-anchor="end">cache + lockfile</text>
  <text x="44" y="321" class="font s4" dominant-baseline="middle" text-anchor="end">cache</text>
  <text x="44" y="326.5" class="font s4" dominant-baseline="middle" text-anchor="end">lockfile</text>
  <text x="44" y="332" class="font s4" dominant-baseline="middle" text-anchor="end">cache + node_modules</text>
  <text x="44" y="337.5" class="font s4" dominant-baseline="middle" text-anchor="end">node_modules + lockfile</text>
  <text x="44" y="343" class="font s4" dominant-baseline="middle" text-anchor="end">node_modules</text>
  <text x="44" y="348.5" class="font s4" dominant-baseline="middle" text-anchor="end">update</text>
  <text x="48" y="357.5" class="font s5" dominant-baseline="middle" text-anchor="start">bun v1.0.28</text>
  <text x="44" y="363" class="font s4" dominant-baseline="middle" text-anchor="end">clean install</text>
  <text x="44" y="368.5" class="font s4" dominant-baseline="middle" text-anchor="end">cache + lockfile + node_modules</text>
  <text x="44" y="374" class="font s4" dominant-baseline="middle" text-anchor="end">cache + lockfile</text>
  <text x="44" y="379.5" class="font s4" dominant-baseline="middle" text-anchor="end">cache</text>
  <text x="44" y="385" class="font s4" dominant-baseline="middle" text-anchor="end">lockfile</text>
  <text x="44" y="390.5" class="font s4" dominant-baseline="middle" text-anchor="end">cache + node_modules</text>
  <text x="44" y="396" class="font s4" dominant-baseline="middle" text-anchor="end">node_modules + lockfile</text>
  <text x="44" y="401.5" class="font s4" dominant-baseline="middle" text-anchor="end">node_modules</text>
  <text x="44" y="407" class="font s4" dominant-baseline="middle" text-anchor="end">update</text>
  <text x="48" y="416" class="font s5" dominant-baseline="middle" text-anchor="start">bun v1.0.27</text>
  <text x="44" y="421.5" class="font s4" dominant-baseline="middle" text-anchor="end">clean install</text>
  <text x="44" y="427" class="font s4" dominant-baseline="middle" text-anchor="end">cache + lockfile + node_modules</text>
  <text x="44" y="432.5" class="font s4" dominant-baseline="middle" text-anchor="end">cache + lockfile</text>
  <text x="44" y="438" class="font s4" dominant-baseline="middle" text-anchor="end">cache</text>
  <text x="44" y="443.5" class="font s4" dominant-baseline="middle" text-anchor="end">lockfile</text>
  <text x="44" y="449" class="font s4" dominant-baseline="middle" text-anchor="end">cache + node_modules</text>
  <text x="44" y="454.5" class="font s4" dominant-baseline="middle" text-anchor="end">node_modules + lockfile</text>
  <text x="44" y="460" class="font s4" dominant-baseline="middle" text-anchor="end">node_modules</text>
  <text x="44" y="465.5" class="font s4" dominant-baseline="middle" text-anchor="end">update</text>
  <text x="48" y="474.5" class="font s5" dominant-baseline="middle" text-anchor="start">bun v1.0.26</text>
  <text x="44" y="480" class="font s4" dominant-baseline="middle" text-anchor="end">clean install</text>
  <text x="44" y="485.5" class="font s4" dominant-baseline="middle" text-anchor="end">cache + lockfile + node_modules</text>
  <text x="44" y="491" class="font s4" dominant-baseline="middle" text-anchor="end">cache + lockfile</text>
  <text x="44" y="496.5" class="font s4" dominant-baseline="middle" text-anchor="end">cache</text>
  <text x="44" y="502" class="font s4" dominant-baseline="middle" text-anchor="end">lockfile</text>
  <text x="44" y="507.5" class="font s4" dominant-baseline="middle" text-anchor="end">cache + node_modules</text>
  <text x="44" y="513" class="font s4" dominant-baseline="middle" text-anchor="end">node_modules + lockfile</text>
  <text x="44" y="518.5" class="font s4" dominant-baseline="middle" text-anchor="end">node_modules</text>
  <text x="44" y="524" class="font s4" dominant-baseline="middle" text-anchor="end">update</text>
  <text x="48" y="533" class="font s5" dominant-baseline="middle" text-anchor="start">bun v1.0.25</text>
  <text x="44" y="538.5" class="font s4" dominant-baseline="middle" text-anchor="end">clean install</text>
  <text x="44" y="544" class="font s4" dominant-baseline="middle" text-anchor="end">cache + lockfile + node_modules</text>
  <text x="44" y="549.5" class="font s4" dominant-baseline="middle" text-anchor="end">cache + lockfile</text>
  <text x="44" y="555" class="font s4" dominant-baseline="middle" text-anchor="end">cache</text>
  <text x="44" y="560.5" class="font s4" dominant-baseline="middle" text-anchor="end">lockfile</text>
  <text x="44" y="566" class="font s4" dominant-baseline="middle" text-anchor="end">cache + node_modules</text>
  <text x="44" y="571.5" class="font s4" dominant-baseline="middle" text-anchor="end">node_modules + lockfile</text>
  <text x="44" y="577" class="font s4" dominant-baseline="middle" text-anchor="end">node_modules</text>
  <text x="44" y="582.5" class="font s4" dominant-baseline="middle" text-anchor="end">update</text>
  <text x="48" y="591.5" class="font s5" dominant-baseline="middle" text-anchor="start">bun v1.0.24</text>
  <text x="44" y="597" class="font s4" dominant-baseline="middle" text-anchor="end">clean install</text>
  <text x="44" y="602.5" class="font s4" dominant-baseline="middle" text-anchor="end">cache + lockfile + node_modules</text>
  <text x="44" y="608" class="font s4" dominant-baseline="middle" text-anchor="end">cache + lockfile</text>
  <text x="44" y="613.5" class="font s4" dominant-baseline="middle" text-anchor="end">cache</text>
  <text x="44" y="619" class="font s4" dominant-baseline="middle" text-anchor="end">lockfile</text>
  <text x="44" y="624.5" class="font s4" dominant-baseline="middle" text-anchor="end">cache + node_modules</text>
  <text x="44" y="630" class="font s4" dominant-baseline="middle" text-anchor="end">node_modules + lockfile</text>
  <text x="44" y="635.5" class="font s4" dominant-baseline="middle" text-anchor="end">node_modules</text>
  <text x="44" y="641" class="font s4" dominant-baseline="middle" text-anchor="end">update</text>
  <text x="48" y="650" class="font s5" dominant-baseline="middle" text-anchor="start">bun v1.0.23</text>
  <text x="44" y="655.5" class="font s4" dominant-baseline="middle" text-anchor="end">clean install</text>
  <text x="44" y="661" class="font s4" dominant-baseline="middle" text-anchor="end">cache + lockfile + node_modules</text>
  <text x="44" y="666.5" class="font s4" dominant-baseline="middle" text-anchor="end">cache + lockfile</text>
  <text x="44" y="672" class="font s4" dominant-baseline="middle" text-anchor="end">cache</text>
  <text x="44" y="677.5" class="font s4" dominant-baseline="middle" text-anchor="end">lockfile</text>
  <text x="44" y="683" class="font s4" dominant-baseline="middle" text-anchor="end">cache + node_modules</text>
  <text x="44" y="688.5" class="font s4" dominant-baseline="middle" text-anchor="end">node_modules + lockfile</text>
  <text x="44" y="694" class="font s4" dominant-baseline="middle" text-anchor="end">node_modules</text>
  <text x="44" y="699.5" class="font s4" dominant-baseline="middle" text-anchor="end">update</text>
  <text x="48" y="708.5" class="font s5" dominant-baseline="middle" text-anchor="start">bun v1.0.22</text>
  <text x="44" y="714" class="font s4" dominant-baseline="middle" text-anchor="end">clean install</text>
  <text x="44" y="719.5" class="font s4" dominant-baseline="middle" text-anchor="end">cache + lockfile + node_modules</text>
  <text x="44" y="725" class="font s4" dominant-baseline="middle" text-anchor="end">cache + lockfile</text>
  <text x="44" y="730.5" class="font s4" dominant-baseline="middle" text-anchor="end">cache</text>
  <text x="44" y="736" class="font s4" dominant-baseline="middle" text-anchor="end">lockfile</text>
  <text x="44" y="741.5" class="font s4" dominant-baseline="middle" text-anchor="end">cache + node_modules</text>
  <text x="44" y="747" class="font s4" dominant-baseline="middle" text-anchor="end">node_modules + lockfile</text>
  <text x="44" y="752.5" class="font s4" dominant-baseline="middle" text-anchor="end">node_modules</text>
  <text x="44" y="758" class="font s4" dominant-baseline="middle" text-anchor="end">update</text>
  <text x="296" y="782.5" class="font s4 text" text-anchor="end">Tests were run using bun with Node.js v20.11.1 at: 31 mars 2024, 07:24</text>
</svg>
