<svg version="1.1" xmlns="http://www.w3.org/2000/svg" viewBox="0 0 300 494.5">
  <style>
    .font { font-family: sans-serif; }
    .s3 { font-size: 3px; }
    .s4 { font-size: 4px; }
    .s5 { font-size: 5px; }
    .line { stroke: #cacaca; }
    .width { stroke-width: 0.5; }
    .text { fill: #888; }
  </style>
  <rect x="0" y="0" width="300" height="494.5" fill="#fff"></rect>
  <circle cx="44" cy="6" r="4" fill="#cd3731"></circle>
  <text x="44" y="14" class="font s4" text-anchor="middle">npm</text>
  <text x="44" y="18" class="font s3" text-anchor="middle">v11.14.1</text>
  <circle cx="60" cy="6" r="4" fill="#fbae00"></circle>
  <text x="60" y="14" class="font s4" text-anchor="middle">pnpm</text>
  <text x="60" y="18" class="font s3" text-anchor="middle">v10.33.0</text>
  <circle cx="76" cy="6" r="4" fill="#f27f0c"></circle>
  <text x="76" y="14" class="font s4" text-anchor="middle">pnpm v12 (rust)</text>
  <text x="76" y="18" class="font s3" text-anchor="middle">vn/a</text>
  <circle cx="92" cy="6" r="4" fill="#248ebd"></circle>
  <text x="92" y="14" class="font s4" text-anchor="middle">Yarn</text>
  <text x="92" y="18" class="font s3" text-anchor="middle">v4.15.0</text>
  <circle cx="108" cy="6" r="4" fill="#40a9ff"></circle>
  <text x="108" y="14" class="font s4" text-anchor="middle">Yarn PnP</text>
  <text x="108" y="18" class="font s3" text-anchor="middle">v4.15.0</text>
  <circle cx="124" cy="6" r="4" fill="#2fa84f"></circle>
  <text x="124" y="14" class="font s4" text-anchor="middle">Yarn Classic</text>
  <text x="124" y="18" class="font s3" text-anchor="middle">v1.22.22</text>
  <circle cx="140" cy="6" r="4" fill="#ff6f00"></circle>
  <text x="140" y="14" class="font s4" text-anchor="middle">Bun</text>
  <text x="140" y="18" class="font s3" text-anchor="middle">v1.3.14</text>
  <text x="40" y="28" class="font s5 text" text-anchor="middle">0</text>
  <text x="40" y="485.5" class="font s5 text" text-anchor="middle">0</text>
  <line x1="90" y1="31" x2="90" y2="480.5" class="line width"></line>
  <text x="90" y="28" class="font s5 text" text-anchor="middle">5</text>
  <text x="90" y="485.5" class="font s5 text" text-anchor="middle">5</text>
  <line x1="140" y1="31" x2="140" y2="480.5" class="line width"></line>
  <text x="140" y="28" class="font s5 text" text-anchor="middle">10</text>
  <text x="140" y="485.5" class="font s5 text" text-anchor="middle">10</text>
  <line x1="190" y1="31" x2="190" y2="480.5" class="line width"></line>
  <text x="190" y="28" class="font s5 text" text-anchor="middle">15</text>
  <text x="190" y="485.5" class="font s5 text" text-anchor="middle">15</text>
  <line x1="240" y1="31" x2="240" y2="480.5" class="line width"></line>
  <text x="240" y="28" class="font s5 text" text-anchor="middle">20</text>
  <text x="240" y="485.5" class="font s5 text" text-anchor="middle">20</text>
  <line x1="290" y1="31" x2="290" y2="480.5" class="line width"></line>
  <text x="290" y="28" class="font s5 text" text-anchor="middle">25</text>
  <text x="290" y="485.5" class="font s5 text" text-anchor="middle">25</text>
  <text x="290" y="20" class="font s4 text" font-style="italic" text-anchor="end">Installation time in seconds (lower is better)</text>
  <rect x="40" y="35" width="226" height="6" fill="#cd3731" rx="1" ry="1"></rect>
  <rect x="40" y="41.5" width="60" height="6" fill="#fbae00" rx="1" ry="1"></rect>
  <rect x="40" y="48" width="0" height="6" fill="#f27f0c" rx="1" ry="1"></rect>
  <rect x="40" y="54.5" width="115" height="6" fill="#248ebd" rx="1" ry="1"></rect>
  <rect x="40" y="61" width="33" height="6" fill="#40a9ff" rx="1" ry="1"></rect>
  <rect x="40" y="67.5" width="148" height="6" fill="#2fa84f" rx="1" ry="1"></rect>
  <rect x="40" y="74" width="14" height="6" fill="#ff6f00" rx="1" ry="1"></rect>
  <rect x="40" y="84.5" width="15" height="6" fill="#cd3731" rx="1" ry="1"></rect>
  <rect x="40" y="91" width="6" height="6" fill="#fbae00" rx="1" ry="1"></rect>
  <rect x="40" y="97.5" width="0" height="6" fill="#f27f0c" rx="1" ry="1"></rect>
  <rect x="40" y="104" width="14" height="6" fill="#248ebd" rx="1" ry="1"></rect>
  <rect x="40" y="110.5" width="0" height="6" fill="#40a9ff" rx="1" ry="1"></rect>
  <rect x="40" y="117" width="4" height="6" fill="#2fa84f" rx="1" ry="1"></rect>
  <rect x="40" y="123.5" width="0" height="6" fill="#ff6f00" rx="1" ry="1"></rect>
  <rect x="40" y="134" width="71" height="6" fill="#cd3731" rx="1" ry="1"></rect>
  <rect x="40" y="140.5" width="18" height="6" fill="#fbae00" rx="1" ry="1"></rect>
  <rect x="40" y="147" width="0" height="6" fill="#f27f0c" rx="1" ry="1"></rect>
  <rect x="40" y="153.5" width="41" height="6" fill="#248ebd" rx="1" ry="1"></rect>
  <rect x="40" y="160" width="11" height="6" fill="#40a9ff" rx="1" ry="1"></rect>
  <rect x="40" y="166.5" width="43" height="6" fill="#2fa84f" rx="1" ry="1"></rect>
  <rect x="40" y="173" width="5" height="6" fill="#ff6f00" rx="1" ry="1"></rect>
  <rect x="40" y="183.5" width="113" height="6" fill="#cd3731" rx="1" ry="1"></rect>
  <rect x="40" y="190" width="43" height="6" fill="#fbae00" rx="1" ry="1"></rect>
  <rect x="40" y="196.5" width="0" height="6" fill="#f27f0c" rx="1" ry="1"></rect>
  <rect x="40" y="203" width="57" height="6" fill="#248ebd" rx="1" ry="1"></rect>
  <rect x="40" y="209.5" width="28" height="6" fill="#40a9ff" rx="1" ry="1"></rect>
  <rect x="40" y="216" width="73" height="6" fill="#2fa84f" rx="1" ry="1"></rect>
  <rect x="40" y="222.5" width="4" height="6" fill="#ff6f00" rx="1" ry="1"></rect>
  <rect x="40" y="233" width="99" height="6" fill="#cd3731" rx="1" ry="1"></rect>
  <rect x="40" y="239.5" width="36" height="6" fill="#fbae00" rx="1" ry="1"></rect>
  <rect x="40" y="246" width="0" height="6" fill="#f27f0c" rx="1" ry="1"></rect>
  <rect x="40" y="252.5" width="41" height="6" fill="#248ebd" rx="1" ry="1"></rect>
  <rect x="40" y="259" width="11" height="6" fill="#40a9ff" rx="1" ry="1"></rect>
  <rect x="40" y="265.5" width="117" height="6" fill="#2fa84f" rx="1" ry="1"></rect>
  <rect x="40" y="272" width="7" height="6" fill="#ff6f00" rx="1" ry="1"></rect>
  <rect x="40" y="282.5" width="20" height="6" fill="#cd3731" rx="1" ry="1"></rect>
  <rect x="40" y="289" width="16" height="6" fill="#fbae00" rx="1" ry="1"></rect>
  <rect x="40" y="295.5" width="0" height="6" fill="#f27f0c" rx="1" ry="1"></rect>
  <rect x="40" y="302" width="31" height="6" fill="#248ebd" rx="1" ry="1"></rect>
  <rect x="40" y="308.5" width="0" height="6" fill="#40a9ff" rx="1" ry="1"></rect>
  <rect x="40" y="315" width="54" height="6" fill="#2fa84f" rx="1" ry="1"></rect>
  <rect x="40" y="321.5" width="0" height="6" fill="#ff6f00" rx="1" ry="1"></rect>
  <rect x="40" y="332" width="15" height="6" fill="#cd3731" rx="1" ry="1"></rect>
  <rect x="40" y="338.5" width="6" height="6" fill="#fbae00" rx="1" ry="1"></rect>
  <rect x="40" y="345" width="0" height="6" fill="#f27f0c" rx="1" ry="1"></rect>
  <rect x="40" y="351.5" width="13" height="6" fill="#248ebd" rx="1" ry="1"></rect>
  <rect x="40" y="358" width="0" height="6" fill="#40a9ff" rx="1" ry="1"></rect>
  <rect x="40" y="364.5" width="4" height="6" fill="#2fa84f" rx="1" ry="1"></rect>
  <rect x="40" y="371" width="0" height="6" fill="#ff6f00" rx="1" ry="1"></rect>
  <rect x="40" y="381.5" width="20" height="6" fill="#cd3731" rx="1" ry="1"></rect>
  <rect x="40" y="388" width="35" height="6" fill="#fbae00" rx="1" ry="1"></rect>
  <rect x="40" y="394.5" width="0" height="6" fill="#f27f0c" rx="1" ry="1"></rect>
  <rect x="40" y="401" width="31" height="6" fill="#248ebd" rx="1" ry="1"></rect>
  <rect x="40" y="407.5" width="0" height="6" fill="#40a9ff" rx="1" ry="1"></rect>
  <rect x="40" y="414" width="145" height="6" fill="#2fa84f" rx="1" ry="1"></rect>
  <rect x="40" y="420.5" width="0" height="6" fill="#ff6f00" rx="1" ry="1"></rect>
  <rect x="40" y="431" width="14" height="6" fill="#cd3731" rx="1" ry="1"></rect>
  <rect x="40" y="437.5" width="35" height="6" fill="#fbae00" rx="1" ry="1"></rect>
  <rect x="40" y="444" width="0" height="6" fill="#f27f0c" rx="1" ry="1"></rect>
  <rect x="40" y="450.5" width="141" height="6" fill="#248ebd" rx="1" ry="1"></rect>
  <rect x="40" y="457" width="37" height="6" fill="#40a9ff" rx="1" ry="1"></rect>
  <rect x="40" y="463.5" width="189" height="6" fill="#2fa84f" rx="1" ry="1"></rect>
  <rect x="40" y="470" width="2" height="6" fill="#ff6f00" rx="1" ry="1"></rect>
  <line x1="40" y1="31" x2="40" y2="480.5" class="line"></line>
  <text x="38" y="44.5" class="font s4" dominant-baseline="middle" text-anchor="end">clean install</text>
  <text x="38" y="90" class="font s4" dominant-baseline="middle" text-anchor="end">with cache</text>
  <text x="38" y="94" class="font s4" dominant-baseline="middle" text-anchor="end">with lockfile</text>
  <text x="38" y="98" class="font s4" dominant-baseline="middle" text-anchor="end">with node_modules</text>
  <text x="38" y="141.5" class="font s4" dominant-baseline="middle" text-anchor="end">with cache</text>
  <text x="38" y="145.5" class="font s4" dominant-baseline="middle" text-anchor="end">with lockfile</text>
  <text x="38" y="193" class="font s4" dominant-baseline="middle" text-anchor="end">with cache</text>
  <text x="38" y="242.5" class="font s4" dominant-baseline="middle" text-anchor="end">with lockfile</text>
  <text x="38" y="290" class="font s4" dominant-baseline="middle" text-anchor="end">with cache</text>
  <text x="38" y="294" class="font s4" dominant-baseline="middle" text-anchor="end">with node_modules</text>
  <text x="38" y="339.5" class="font s4" dominant-baseline="middle" text-anchor="end">with node_modules</text>
  <text x="38" y="343.5" class="font s4" dominant-baseline="middle" text-anchor="end">with lockfile</text>
  <text x="38" y="391" class="font s4" dominant-baseline="middle" text-anchor="end">with node_modules</text>
  <text x="38" y="440.5" class="font s4" dominant-baseline="middle" text-anchor="end">update</text>
  <text x="290" y="492.5" class="font s4 text" text-anchor="end">Tests were run using Node.js v23.11.1 at: 20 mai 2026, 09:12</text>
</svg>
