<svg version="1.1" xmlns="http://www.w3.org/2000/svg" viewBox="0 0 860 380">
  <style>
    .font { font-family: sans-serif; }
    .s3 { font-size: 10px; }
    .s4 { font-size: 12px; }
    .s5 { font-size: 14px; }
    .grid { stroke: #e0e0e0; stroke-width: 1; }
    .axis { stroke: #b0b0b0; stroke-width: 1; }
    .text { fill: #666; }
    .title { fill: #222; font-weight: 600; }
  </style>
  <rect x="0" y="0" width="860" height="380" fill="#fff"></rect>
  <text x="48" y="16" class="font s5 title">Major Version Trends Across Package Managers</text>
  <text x="48" y="27" class="font s3 text">Metric: clean install (firstInstall), fixture: alotta-files, absolute scale shared by all PMs</text>
  <line x1="48" y1="342" x2="840" y2="342" class="grid"></line>
  <text x="42" y="345" class="font s3 text" text-anchor="end">0.0s</text>
  <line x1="48" y1="279.6" x2="840" y2="279.6" class="grid"></line>
  <text x="42" y="282.6" class="font s3 text" text-anchor="end">13.0s</text>
  <line x1="48" y1="217.2" x2="840" y2="217.2" class="grid"></line>
  <text x="42" y="220.2" class="font s3 text" text-anchor="end">26.0s</text>
  <line x1="48" y1="154.8" x2="840" y2="154.8" class="grid"></line>
  <text x="42" y="157.8" class="font s3 text" text-anchor="end">39.0s</text>
  <line x1="48" y1="92.39999999999998" x2="840" y2="92.39999999999998" class="grid"></line>
  <text x="42" y="95.39999999999998" class="font s3 text" text-anchor="end">52.0s</text>
  <line x1="48" y1="30" x2="840" y2="30" class="grid"></line>
  <text x="42" y="33" class="font s3 text" text-anchor="end">65.0s</text>
  <line x1="48" y1="30" x2="48" y2="342" class="grid"></line>
  <text x="48" y="356" class="font s3 text" text-anchor="middle">v0</text>
  <line x1="120" y1="30" x2="120" y2="342" class="grid"></line>
  <text x="120" y="356" class="font s3 text" text-anchor="middle">v1</text>
  <line x1="192" y1="30" x2="192" y2="342" class="grid"></line>
  <text x="192" y="356" class="font s3 text" text-anchor="middle">v2</text>
  <line x1="264" y1="30" x2="264" y2="342" class="grid"></line>
  <text x="264" y="356" class="font s3 text" text-anchor="middle">v3</text>
  <line x1="336" y1="30" x2="336" y2="342" class="grid"></line>
  <text x="336" y="356" class="font s3 text" text-anchor="middle">v4</text>
  <line x1="408" y1="30" x2="408" y2="342" class="grid"></line>
  <text x="408" y="356" class="font s3 text" text-anchor="middle">v5</text>
  <line x1="479.99999999999994" y1="30" x2="479.99999999999994" y2="342" class="grid"></line>
  <text x="479.99999999999994" y="356" class="font s3 text" text-anchor="middle">v6</text>
  <line x1="552" y1="30" x2="552" y2="342" class="grid"></line>
  <text x="552" y="356" class="font s3 text" text-anchor="middle">v7</text>
  <line x1="624" y1="30" x2="624" y2="342" class="grid"></line>
  <text x="624" y="356" class="font s3 text" text-anchor="middle">v8</text>
  <line x1="696" y1="30" x2="696" y2="342" class="grid"></line>
  <text x="696" y="356" class="font s3 text" text-anchor="middle">v9</text>
  <line x1="768" y1="30" x2="768" y2="342" class="grid"></line>
  <text x="768" y="356" class="font s3 text" text-anchor="middle">v10</text>
  <line x1="840" y1="30" x2="840" y2="342" class="grid"></line>
  <text x="840" y="356" class="font s3 text" text-anchor="middle">v11</text>
  <line x1="48" y1="30" x2="48" y2="342" class="axis"></line>
  <line x1="48" y1="342" x2="840" y2="342" class="axis"></line>
  <polyline fill="none" stroke="#cd3731" stroke-width="2" points="408,210.8016 479.99999999999994,178.77599999999998 552,36.12959999999998 624,139.3632 696,160.95360000000002 768,189.3648 840,198.07680000000002"></polyline>
  <circle cx="408" cy="210.8016" r="2.8" fill="#cd3731"></circle>
  <circle cx="479.99999999999994" cy="178.77599999999998" r="2.8" fill="#cd3731"></circle>
  <circle cx="552" cy="36.12959999999998" r="2.8" fill="#cd3731"></circle>
  <circle cx="624" cy="139.3632" r="2.8" fill="#cd3731"></circle>
  <circle cx="696" cy="160.95360000000002" r="2.8" fill="#cd3731"></circle>
  <circle cx="768" cy="189.3648" r="2.8" fill="#cd3731"></circle>
  <circle cx="840" cy="198.07680000000002" r="2.8" fill="#cd3731"></circle>
  <polyline fill="none" stroke="#fbae00" stroke-width="2" points="120,238.0464 192,256.9248 264,252.7536 336,220.392 408,267.3936 479.99999999999994,276.0528 552,247.98239999999998 624,301.4928 696,301.8912 768,305.2992 840,297.98879999999997"></polyline>
  <circle cx="120" cy="238.0464" r="2.8" fill="#fbae00"></circle>
  <circle cx="192" cy="256.9248" r="2.8" fill="#fbae00"></circle>
  <circle cx="264" cy="252.7536" r="2.8" fill="#fbae00"></circle>
  <circle cx="336" cy="220.392" r="2.8" fill="#fbae00"></circle>
  <circle cx="408" cy="267.3936" r="2.8" fill="#fbae00"></circle>
  <circle cx="479.99999999999994" cy="276.0528" r="2.8" fill="#fbae00"></circle>
  <circle cx="552" cy="247.98239999999998" r="2.8" fill="#fbae00"></circle>
  <circle cx="624" cy="301.4928" r="2.8" fill="#fbae00"></circle>
  <circle cx="696" cy="301.8912" r="2.8" fill="#fbae00"></circle>
  <circle cx="768" cy="305.2992" r="2.8" fill="#fbae00"></circle>
  <circle cx="840" cy="297.98879999999997" r="2.8" fill="#fbae00"></circle>
  <polyline fill="none" stroke="#8e44ad" stroke-width="2" points="48,308.7216"></polyline>
  <circle cx="48" cy="308.7216" r="2.8" fill="#8e44ad"></circle>
  <polyline fill="none" stroke="#248ebd" stroke-width="2" points="120,235.68959999999998 192,47.09280000000001 264,244.2912 336,294.2448"></polyline>
  <circle cx="120" cy="235.68959999999998" r="2.8" fill="#248ebd"></circle>
  <circle cx="192" cy="47.09280000000001" r="2.8" fill="#248ebd"></circle>
  <circle cx="264" cy="244.2912" r="2.8" fill="#248ebd"></circle>
  <circle cx="336" cy="294.2448" r="2.8" fill="#248ebd"></circle>
  <polyline fill="none" stroke="#40a9ff" stroke-width="2" points="120,244.632 192,106.3392 264,146.4672 336,331.68"></polyline>
  <circle cx="120" cy="244.632" r="2.8" fill="#40a9ff"></circle>
  <circle cx="192" cy="106.3392" r="2.8" fill="#40a9ff"></circle>
  <circle cx="264" cy="146.4672" r="2.8" fill="#40a9ff"></circle>
  <circle cx="336" cy="331.68" r="2.8" fill="#40a9ff"></circle>
  <polyline fill="none" stroke="#16a34a" stroke-width="2" points="120,214.50240000000002"></polyline>
  <circle cx="120" cy="214.50240000000002" r="2.8" fill="#16a34a"></circle>
  <polyline fill="none" stroke="#ff6b00" stroke-width="2" points="120,331.9344"></polyline>
  <circle cx="120" cy="331.9344" r="2.8" fill="#ff6b00"></circle>
  <circle cx="52" cy="368" r="3" fill="#cd3731"></circle>
  <text x="58" y="369" class="font s3" dominant-baseline="middle">npm</text>
  <circle cx="165.14285714285714" cy="368" r="3" fill="#fbae00"></circle>
  <text x="171.14285714285714" y="369" class="font s3" dominant-baseline="middle">pnpm</text>
  <circle cx="278.2857142857143" cy="368" r="3" fill="#8e44ad"></circle>
  <text x="284.2857142857143" y="369" class="font s3" dominant-baseline="middle">pnpm v12 (rust)</text>
  <circle cx="391.42857142857144" cy="368" r="3" fill="#248ebd"></circle>
  <text x="397.42857142857144" y="369" class="font s3" dominant-baseline="middle">Yarn</text>
  <circle cx="504.57142857142856" cy="368" r="3" fill="#40a9ff"></circle>
  <text x="510.57142857142856" y="369" class="font s3" dominant-baseline="middle">Yarn PnP</text>
  <circle cx="617.7142857142857" cy="368" r="3" fill="#16a34a"></circle>
  <text x="623.7142857142857" y="369" class="font s3" dominant-baseline="middle">Yarn Classic</text>
  <circle cx="730.8571428571429" cy="368" r="3" fill="#ff6b00"></circle>
  <text x="736.8571428571429" y="369" class="font s3" dominant-baseline="middle">Bun</text>
  <text x="840" y="376" class="font s3 text" text-anchor="end">Node.js v24.11.1 · 31 mai 2026, 08:13</text>
</svg>
